<svg width="6394" height="2694" viewBox="0 0 6394 2694" fill="none" xmlns="http://www.w3.org/2000/svg">
<path d="M2698.5 0C2935.15 0 3127 169.013 3127 377.5C3127 444.606 3107.12 507.621 3072.28 562.228C3114.76 621.499 3144.94 688.122 3159.7 759.397C3283.24 779.026 3376 862.054 3376 961.5C3376 1037.62 3321.64 1104.13 3240.74 1139.94C3271.2 1180.85 3289 1230.28 3289 1283.5C3289 1424.61 3163.86 1539 3009.5 1539C2939.16 1539 2874.9 1515.25 2825.77 1476.04C2829.21 1496.35 2831 1517.21 2831 1538.5C2831 1551.84 2830.29 1565.02 2828.92 1578C2829.45 1578 2829.97 1578 2830.5 1578C2943.34 1578 3038.32 1652.25 3066.5 1753.2C3080.95 1757 3095.05 1761.24 3108.79 1765.88C3179.14 1660.54 3307.86 1590 3455 1590C3558.81 1590 3653.46 1625.11 3724.9 1682.79C3794.74 1531.28 3968.14 1424 4171 1424C4342.66 1424 4493.23 1500.82 4577.8 1616.25C4603.4 1532.23 4650.12 1476 4703.5 1476C4734.04 1476 4762.4 1494.4 4785.87 1525.89C4851.66 1488.86 4928.25 1463.54 5011.05 1453.64C5046.62 1289.92 5182.86 1168 5345.5 1168C5535.21 1168 5689 1333.88 5689 1538.5C5689 1626.85 5660.33 1707.98 5612.47 1771.65C5638.01 1767.3 5664.63 1765 5692 1765C5883.09 1765 6038 1877.15 6038 2015.5C6038 2023.33 6037.5 2031.07 6036.53 2038.71C6074.15 2024.49 6121.74 2016 6173.5 2016C6295.28 2016 6394 2063.01 6394 2121C6394 2178.99 6295.28 2226 6173.5 2226C6083.22 2226 6005.62 2200.16 5971.51 2163.17C5908.57 2225.51 5806.82 2266 5692 2266C5598.72 2266 5514.07 2239.28 5451.84 2195.83C5356.8 2267.3 5229.46 2311 5089.5 2311C5016.22 2311 4946.39 2299.02 4882.85 2277.34C4876.96 2508.52 4699.3 2694 4481 2694C4340.7 2694 4217.19 2617.39 4145.28 2501.28C4075.1 2575.31 3972.41 2622 3858 2622C3662.82 2622 3501.74 2486.1 3478.01 2310.42C3470.4 2310.8 3462.72 2311 3455 2311C3382.65 2311 3314.75 2293.94 3256.05 2264.08C3165.56 2332.62 3031.77 2376 2882.5 2376C2806.43 2376 2734.39 2364.73 2670.04 2344.62C2584.76 2444.26 2417.23 2512 2224.5 2512C2018.04 2512 1840.48 2434.26 1762 2322.83C1660.57 2356.76 1544.64 2376 1421.5 2376C1252.96 2376 1097.92 2339.96 975.112 2279.56C905.501 2338 792.53 2376 665 2376C496.932 2376 354.149 2310 302.574 2218.19C278.933 2223.25 253.497 2226 227 2226C101.631 2226 0 2164.44 0 2088.5C0 2012.56 101.631 1951 227 1951C248.483 1951 269.268 1952.81 288.965 1956.19C306.605 1935.97 356.246 1919.71 420.416 1912.71C418.822 1901.01 418 1889.09 418 1877C418 1718.49 559.03 1590 733 1590C787.964 1590 839.639 1602.83 884.618 1625.37C965.084 1569.51 1067.64 1526.27 1183.71 1501.01C1179.96 1484.16 1178 1466.77 1178 1449C1178 1319.97 1281.37 1211.26 1422.23 1178.27C1422.08 1174.86 1422 1171.44 1422 1168C1422 997.896 1611.83 860 1846 860C1854.73 860 1863.4 860.193 1872 860.571C1872 860.381 1872 860.19 1872 860C1872 625.106 2037.24 423.749 2272.21 338.927C2294.14 148.559 2476.63 0 2698.5 0Z" fill="#E3B5C1"/>
</svg>
