<svg width="4264" height="2229" viewBox="0 0 4264 2229" fill="none" xmlns="http://www.w3.org/2000/svg">
<path d="M3006.5 0C3363 0 3652 190.426 3652 425.329C3652 449.748 3648.87 473.685 3642.88 496.979C3766.82 578.518 3849 721.393 3849 884.023C3849 944.742 3837.54 1002.71 3816.74 1055.75C3934.99 1131.27 4013 1260.84 4013 1408C4013 1436.17 4010.14 1463.69 4004.69 1490.31C4021.99 1485.54 4040.2 1483 4059 1483C4172.22 1483 4264 1575.23 4264 1689C4264 1802.77 4172.22 1895 4059 1895C4008.46 1895 3962.2 1876.62 3926.46 1846.16C3896.41 1876.18 3848.93 1895.56 3795.5 1895.56C3745.11 1895.56 3700.01 1878.33 3669.83 1851.18C3654.04 1877.43 3627.7 1898.53 3595.44 1910.61C3597.78 1919.21 3599 1928.07 3599 1937.13C3599 2016.16 3506.1 2080.22 3391.5 2080.22C3355.64 2080.22 3321.9 2073.95 3292.48 2062.91C3183.8 2165.49 3033.3 2229 2867 2229C2696.1 2229 2541.88 2161.93 2432.6 2054.31C2403.07 2063.2 2371.83 2067.97 2339.5 2067.97C2284.82 2067.97 2233.25 2054.33 2187.82 2030.18C2162.12 2053.49 2126.22 2067.97 2086.5 2067.97C2008.35 2067.97 1945 2011.94 1945 1942.82C1945 1939.63 1945.14 1936.47 1945.4 1933.34C1872.02 1986.7 1769.47 2019.84 1656 2019.84C1497.62 2019.84 1360.53 1955.28 1294.3 1861.28C1232.01 1899.5 1156.88 1921.82 1076 1921.82C1030.71 1921.82 987.217 1914.82 946.774 1901.95C918.343 1970.28 833.833 2019.84 734 2019.84C621.54 2019.84 528.522 1956.95 513.21 1875.18C459.854 1888 394.111 1895.56 323 1895.56C144.612 1895.56 0 1847.96 0 1789.23C7.51508e-05 1730.5 144.612 1682.9 323 1682.9C324.5 1682.9 325.998 1682.9 327.493 1682.91C324.546 1670.59 323 1657.86 323 1644.83C323 1535.84 431.123 1447.48 564.5 1447.48C613.914 1447.48 659.862 1459.61 698.13 1480.42C740.216 1331.16 887.062 1219.92 1063.46 1214.87C1060.55 1196.88 1059 1178.06 1059 1158.68C1059 1031.56 1125.49 928.508 1207.5 928.508C1236.85 928.508 1264.21 941.705 1287.24 964.478C1344.05 881.961 1422.15 816.109 1513.27 775.421C1540.23 691.325 1650.98 628.327 1783.5 628.327C1833.89 628.327 1881.13 637.437 1921.81 653.35C1967.07 589.88 2027.99 551 2095 551C2188.79 551 2270.65 627.169 2314.35 740.323C2344.38 698.078 2387.55 660.55 2440.45 629.926C2389.81 569.222 2361 499.493 2361 425.329C2361 190.426 2650 0 3006.5 0Z" fill="#CA9EBD"/>
</svg>
