<svg width="8765" height="3790" viewBox="0 0 8765 3790" fill="none" xmlns="http://www.w3.org/2000/svg">
<path d="M1669 0C1370.77 0 1129 225.425 1129 503.5C1129 573.536 1144.34 640.23 1172.05 700.826C1009.38 770.431 901 894.96 901 1037C901 1052.04 902.218 1066.88 904.583 1081.48C664.615 1153.51 494 1337.45 494 1553C494 1598.79 501.7 1643.15 516.126 1685.31C463.664 1657.93 400.919 1642 333.5 1642C149.313 1642 0 1760.87 0 1907.5C0 2054.13 149.313 2173 333.5 2173C392.17 2173 447.3 2160.94 495.194 2139.76C494.405 2150.59 494 2161.51 494 2172.5C494 2465.49 778.523 2703 1129.5 2703C1276.9 2703 1412.57 2661.11 1520.37 2590.81C1530.42 2600.97 1540.75 2610.51 1551.34 2619.42C1468.17 2702.56 1420 2801.2 1420 2907C1420 3203.58 1798.54 3444 2265.5 3444C2647.75 3444 2970.76 3282.89 3075.36 3061.75C3167.31 3114.09 3277.18 3145.48 3395.5 3147.85C3543.53 3359.47 3863.78 3506 4235 3506C4411.2 3506 4575.91 3472.99 4716.18 3415.67C4800.8 3631.26 5088.99 3790 5431.5 3790C5633.51 3790 5816.62 3734.78 5950.22 3645.25C6095.69 3737.06 6266.83 3790 6450 3790C6852.85 3790 7197.57 3533.93 7338.73 3171.38C7473.56 3211.38 7626.88 3234 7789.5 3234C8328.25 3234 8765 2985.74 8765 2679.5C8765 2422.52 8457.45 2206.37 8040.16 2143.48C8152.85 2012.92 8222 1836.35 8222 1642C8222 1239.94 7926.06 914 7561 914C7338.46 914 7141.61 1035.12 7021.82 1220.77C7018.87 1191.06 7013.89 1161.82 7006.99 1133.15C7018.76 1080.21 7025 1024.9 7025 968C7025 583.61 6740.25 272 6389 272C6189.12 272 6010.77 372.91 5894.18 530.715C5784.01 550.618 5681.13 586.681 5589.32 635.75C5491.86 418.139 5311.23 272 5104.5 272C4794.39 272 4543 600.847 4543 1006.5C4543 1044.43 4545.2 1081.69 4549.44 1118.07C4480.85 1074.95 4392.46 1049 4296 1049C4077.85 1049 3901 1181.75 3901 1345.5C3901 1376.75 3907.44 1406.87 3919.38 1435.15C3899.18 1454.64 3880.16 1475.75 3862.49 1498.31C3768.48 1404.28 3637.88 1346 3493.5 1346C3410.17 1346 3331.44 1365.41 3261.67 1399.9C3182.22 1192.68 3008.95 1049 2808 1049C2754.69 1049 2703.33 1059.11 2655.16 1077.84C2649.19 1042.61 2640.84 1008.33 2630.29 975.205C2653.29 914.728 2666 848.261 2666 778.5C2666 498.768 2461.62 272 2209.5 272C2189.66 272 2170.11 273.405 2150.93 276.13C2061.85 112.291 1879.49 0 1669 0Z" fill="#FDF7E6"/>
</svg>
