<svg width="9433" height="4927" viewBox="0 0 9433 4927" fill="none" xmlns="http://www.w3.org/2000/svg">
<path d="M3034.5 0C2533.93 0 2114.06 440.444 2000.36 1033.91C1834.17 1123.35 1721 1300.53 1721 1504.5C1721 1650.85 1779.26 1783.41 1873.57 1879.66C1866.43 1879.22 1859.24 1879 1852 1879C1634.4 1879 1458 2078.9 1458 2325.5C1458 2510.59 1557.38 2669.37 1698.97 2737.07C1666.42 2756.3 1636.41 2778.24 1609.41 2802.49C1557.32 2782.91 1499.45 2772 1438.5 2772C1210.13 2772 1025 2925.12 1025 3114C1025 3130.17 1026.36 3146.08 1028.98 3161.66C1001.72 3160.56 974.034 3160 946 3160C944.604 3160 943.209 3160 941.814 3160C917.51 3040.85 790.29 2950 637 2950C467.682 2950 330.173 3060.84 328.026 3198.24C307.229 3194.82 285.443 3193 263 3193C117.749 3193 0 3269.11 0 3363C0 3442.1 83.5732 3508.58 196.756 3527.56C284.559 3652.73 586.73 3745 946 3745C947.519 3745 949.037 3745 950.554 3744.99C947.557 3762.11 946 3779.64 946 3797.5C946 3986.11 1119.49 4139 1333.5 4139C1506.24 4139 1652.57 4039.39 1702.59 3901.8C1822.71 3954.2 1969.51 3985 2128 3985C2164.85 3985 2201.06 3983.33 2236.45 3980.12C2234.18 3987.41 2233 3994.88 2233 4002.5C2233 4079.54 2353.66 4142 2502.5 4142C2508.87 4142 2515.19 4141.88 2521.45 4141.66C2579.1 4234 2685.84 4296 2808 4296C2848.58 4296 2887.45 4289.16 2923.4 4276.64C3033.07 4532.95 3282.88 4712 3573.5 4712C3737.06 4712 3887.7 4655.29 4007.7 4560C4117.61 4593.23 4242.32 4612 4374.5 4612C4439.3 4612 4502.3 4607.49 4562.65 4598.97C4714.33 4729.46 4915.85 4809 5137 4809C5380.89 4809 5600.91 4712.27 5756.52 4557.14C5863.08 4683.32 6025.17 4773.08 6212.24 4800.33C6327.86 4879.84 6471.87 4927 6628 4927C6812.26 4927 6979.64 4861.32 7103.4 4754.3C7184.91 4789.22 7277.85 4809 7376.5 4809C7563.14 4809 7729.35 4738.21 7836.36 4628C8017.73 4623.7 8191.53 4605.7 8353.31 4576.14C8464.6 4621.23 8607.35 4648.33 8763 4648.33C9118.4 4648.33 9406.5 4507.08 9406.5 4332.83C9406.5 4265.39 9363.34 4202.9 9289.83 4151.62C9381.87 4052.52 9433 3942.85 9433 3827.5C9433 3560.56 9159.22 3324.09 8738.19 3178.42C8637.97 3006.15 8474.56 2894 8290 2894C8284.52 2894 8279.06 2894.1 8273.62 2894.3C8190.07 2645.09 7937.77 2464 7639.5 2464C7434.34 2464 7250.93 2549.68 7129.23 2684.27C6965.91 2611.84 6781.05 2563.61 6583.52 2546.22C6488.87 2217.41 6198.07 1978 5854 1978C5548.85 1978 5285.6 2166.31 5163.92 2438.28C5077.82 2410.97 4986.51 2392.63 4891.58 2384.61C4902.35 2330.86 4908 2275.32 4908 2218.5C4908 1767.32 4552.11 1397.15 4099 1360.06C4099 1359.04 4099 1358.02 4099 1357C4099 607.55 3622.41 0 3034.5 0ZM3276.59 2678.75C3278.83 2682.18 3281.08 2685.6 3283.36 2689C3276.68 2686.79 3269.95 2684.66 3263.18 2682.61C3267.66 2681.36 3272.13 2680.07 3276.59 2678.75Z" fill="#E3B5C1"/>
</svg>
