<svg width="8077" height="4474" viewBox="0 0 8077 4474" fill="none" xmlns="http://www.w3.org/2000/svg">
<path d="M4513.5 0C4928.54 0 5265 355.038 5265 793C5265 827.404 5262.92 861.297 5258.89 894.546C5275.42 892.86 5292.13 892 5309 892C5499.55 892 5669.62 1001.64 5781.1 1173.24C5835.55 1143.92 5899.75 1127 5968.5 1127C6165.39 1127 6325 1265.79 6325 1437C6325 1455.01 6323.23 1472.66 6319.84 1489.83C6382.3 1564.84 6420 1662.16 6420 1768.5C6420 1774.57 6419.87 1780.62 6419.63 1786.63C6854 1848.13 7188.01 2111.04 7226.33 2434.69C7266.39 2429.64 7307.73 2427 7350 2427C7715.61 2427 8012 2624.67 8012 2868.5C8012 2968.97 7961.68 3061.6 7876.92 3135.8C8004.19 3231.52 8077 3342.57 8077 3461C8077 3808.48 7450.18 4092.47 6660.13 4111.94C6549.55 4325.38 6302.51 4474 6015.5 4474C5828.91 4474 5659.21 4411.18 5532.92 4308.58C5467.36 4328.88 5396.27 4340 5322 4340C5138.75 4340 4974.85 4272.34 4865.71 4165.93C4726.15 4274.18 4541.94 4340 4340 4340C4144.44 4340 3965.51 4278.28 3827.65 4176.06C3810.95 4186.93 3793.56 4196.82 3775.56 4205.65C3647.36 4366.44 3413.83 4474 3147 4474C2803.33 4474 2514.91 4295.57 2435.6 4054.8C2428.42 4054.93 2421.22 4055 2414 4055C2289.23 4055 2169.95 4035.14 2060.35 3998.96C2037.34 4189.66 1776.67 4340 1458.5 4340C1163.95 4340 918.681 4211.15 865.633 4040.72C804.604 4050.01 739.944 4055 673 4055C301.312 4055 0 3901.21 0 3711.5C0 3521.79 301.312 3368 673 3368C746.022 3368 816.328 3373.94 882.166 3384.92C864.566 3343.29 855 3298.57 855 3252C855 3028.88 1074.6 2848 1345.5 2848C1413.37 2848 1478.03 2859.36 1536.81 2879.88C1693.36 2603.73 2027.31 2413 2414 2413C2505.98 2413 2594.98 2423.79 2679.32 2443.96C2682.68 2424.21 2686.63 2404.67 2691.12 2385.34C2529.54 2320.06 2414 2146.43 2414 1942.5C2414 1682.65 2601.59 1472 2833 1472C2926.18 1472 3012.25 1506.15 3081.83 1563.92C3066.91 1491.63 3059 1416.14 3059 1338.5C3059 812.325 3422.16 385.174 3871.81 380.046C4003.82 152.122 4241.83 0 4513.5 0ZM4608.2 2674.64C4607.56 2685.34 4606.76 2696 4605.79 2706.6C4611.89 2697.01 4618.18 2687.59 4624.64 2678.37C4619.12 2677.24 4613.64 2676 4608.2 2674.64Z" fill="#CA9EBD"/>
</svg>
