<svg width="4863" height="2079" viewBox="0 0 4863 2079" fill="none" xmlns="http://www.w3.org/2000/svg">
<path d="M1963.46 0C2184.37 3.51078e-05 2363.45 190.597 2363.45 425.711C2363.45 426.901 2363.44 428.09 2363.44 429.278C2482.29 452.722 2573.99 588.932 2576.93 754.795C2626.57 784.311 2662.86 835.351 2674.06 895.693C2694.54 899.781 2713.9 907.122 2731.64 917.179C2768.08 876.71 2819.91 851.422 2877.41 851.422C2923.67 851.422 2966.25 867.784 3000.1 895.244C3011.64 893.089 3023.51 891.965 3035.64 891.965C3145.94 891.965 3235.36 984.994 3235.36 1099.75C3235.36 1139.56 3224.6 1176.76 3205.93 1208.36C3233.24 1212.36 3258.91 1219.86 3282.1 1230.22C3353.69 1088.32 3500.11 991.072 3669.1 991.072C3694.89 991.072 3720.15 993.338 3744.7 997.68C3826.23 856.596 3965.86 763.576 4124.42 763.576C4375.89 763.576 4579.74 997.537 4579.74 1286.14C4579.74 1353.3 4568.7 1417.49 4548.59 1476.47C4595.87 1517.54 4625.11 1574.28 4625.11 1636.96C4625.11 1660 4621.15 1682.25 4613.8 1703.2C4635.46 1712.56 4652.41 1730.43 4660.22 1752.48C4661.78 1752.43 4663.36 1752.4 4664.94 1752.4C4701.66 1752.4 4732.88 1768 4744.34 1789.75C4756.37 1783.93 4770.71 1780.55 4786.1 1780.55C4828.57 1780.55 4863 1806.27 4863 1837.99C4863 1869.71 4828.57 1895.43 4786.1 1895.43C4751.17 1895.43 4721.68 1878.03 4712.31 1854.21C4698.82 1860.32 4682.51 1863.89 4664.94 1863.89C4647.75 1863.89 4631.76 1860.47 4618.44 1854.6C4606.68 1860.54 4593.33 1863.89 4579.19 1863.89C4549.38 1863.89 4523.12 1849.01 4507.75 1826.42C4466.52 1850.1 4417.1 1863.89 4363.98 1863.89C4295.68 1863.89 4233.52 1841.11 4186.98 1803.81C4166.53 1807.04 4145.65 1808.71 4124.42 1808.71C4060.03 1808.71 3998.76 1793.36 3943.24 1765.69C3868.52 1827.08 3773.09 1863.89 3669.1 1863.89C3633.76 1863.89 3599.4 1859.64 3566.5 1851.61C3538.93 1980.92 3405.62 2079 3245.32 2079C3096.17 2079 2970.38 1994.09 2931.4 1878.11C2889.76 1889.36 2845.42 1895.43 2799.41 1895.43C2680.21 1895.43 2572.18 1854.7 2493.48 1788.71C2426.61 1853.89 2325.53 1895.43 2212.42 1895.43C2109.39 1895.43 2016.34 1860.97 1950.03 1805.57C1895.45 1941.02 1687.36 2041.83 1438.98 2041.83C1192.11 2041.83 985.03 1942.23 928.938 1808.03C879.507 1805.89 832.838 1798.78 790.838 1787.66C724.609 1854.64 636.821 1895.43 540.518 1895.43C416.345 1895.43 306.328 1827.62 238.432 1723.29C223.75 1730.95 205.333 1735.5 185.336 1735.5C170.989 1735.5 157.456 1733.16 145.531 1729C130.244 1732.99 108.133 1735.5 83.54 1735.5C37.4024 1735.5 0 1726.68 0 1715.79C0.00104424 1704.91 37.403 1696.09 83.54 1696.09C90.4273 1696.09 97.1199 1696.28 103.522 1696.65C100.257 1690.49 98.4776 1683.86 98.4775 1676.94C98.4775 1644.6 137.365 1618.38 185.336 1618.38C186.503 1618.38 187.665 1618.39 188.821 1618.42C174.746 1574.42 167.079 1527.01 167.079 1477.6C167.079 1246.84 334.273 1059.77 540.518 1059.77C581.804 1059.77 621.525 1067.27 658.654 1081.11C708.219 1024.5 781.414 980.295 867.886 956.179C851.21 921.888 842.035 884.442 842.035 845.227C842.035 680.709 1003.53 547.342 1202.75 547.342C1244.34 547.342 1284.29 553.156 1321.47 563.853C1321.58 563.764 1321.69 563.675 1321.79 563.586C1355.77 481.679 1424.23 425.711 1503.16 425.711C1524.2 425.711 1544.5 429.69 1563.6 437.078C1563.51 433.301 1563.46 429.512 1563.46 425.711C1563.46 190.597 1742.55 0 1963.46 0Z" fill="#FDF7E6"/>
</svg>
