<svg width="512" height="548" viewBox="0 0 512 548" fill="none" xmlns="http://www.w3.org/2000/svg" xmlns:xlink="http://www.w3.org/1999/xlink">
<path d="M30.2369 273.039C19.2224 272.47 9.02369 271.44 0 270.161C10.4697 270.952 20.5437 271.915 30.2369 273.039C132.4 278.315 304.752 243.868 260.712 0C315.507 212.568 267.692 270.161 512 270.161C364.607 308.32 283.952 305.782 274.103 471.619C275.953 499.444 274.173 525.964 273.974 548C272.735 519.169 272.781 493.877 274.103 471.619C268.656 389.673 231.727 296.411 30.2369 273.039Z" fill="#d1a2ac"/>
<defs>
<g id="stroke0_153_83" data-figma-scatter-ref="stroke0_153_83_ref" data-figma-scatter="f0.51_w0.06_aj180_sj0.65_r0_s4856354026907051368_sw10">
</g>
<path id="stroke0_153_83_ref" d="M0 270.161C92.7207 283.308 309.5 270.161 260.712 0C315.506 212.568 267.692 270.161 512 270.161C344.823 313.442 263.504 304.367 273.974 548C274.788 457.946 302 293 0 270.161Z"/>
</defs>
</svg>
